<svg xmlns="http://www.w3.org/2000/svg" width="22.095" height="22.095" viewBox="0 0 22.095 22.095">
  <g id="_1" data-name="1" transform="translate(0 0)">
    <path id="Path_121028" data-name="Path 121028" d="M70.286,70.115a10.915,10.915,0,0,1-2.55-.322,18.281,18.281,0,0,1-8.354-4.966,18.325,18.325,0,0,1-4.966-8.353c-.732-3.028-.21-5.619,1.468-7.3l.479-.479a2.319,2.319,0,0,1,3.277,0l2.754,2.753a2.318,2.318,0,0,1,0,3.277l-1.627,1.626a20.1,20.1,0,0,0,7.086,7.086l1.626-1.627a2.316,2.316,0,0,1,3.277,0l2.753,2.753a2.317,2.317,0,0,1,0,3.276l-.48.479A6.5,6.5,0,0,1,70.286,70.115ZM58,49.667a.66.66,0,0,0-.472.2l-.48.479c-1.257,1.257-1.624,3.3-1.034,5.743A18.078,18.078,0,0,0,68.123,68.19c2.446.59,4.485.223,5.742-1.034l.479-.479a.668.668,0,0,0,0-.945l-2.753-2.753a.668.668,0,0,0-.945,0l-2.061,2.061a.824.824,0,0,1-.962.149,21.433,21.433,0,0,1-8.606-8.605.824.824,0,0,1,.149-.962l2.062-2.061a.668.668,0,0,0,0-.945l-2.753-2.754A.663.663,0,0,0,58,49.667Z" transform="translate(-54.094 -48.02)" fill="#fff"/>
    <path id="Path_121029" data-name="Path 121029" d="M243,133.837a.87.87,0,0,1-.87-.87,5.764,5.764,0,0,0-5.757-5.757.87.87,0,1,1,0-1.74,7.506,7.506,0,0,1,7.5,7.5A.87.87,0,0,1,243,133.837Z" transform="translate(-225.839 -121.345)" fill="#fff"/>
    <path id="Path_121030" data-name="Path 121030" d="M246.674,74.114a.87.87,0,0,1-.87-.87,9.446,9.446,0,0,0-9.434-9.434.87.87,0,0,1,0-1.74,11.187,11.187,0,0,1,11.174,11.174A.87.87,0,0,1,246.674,74.114Z" transform="translate(-226.202 -61.255)" fill="#fff"/>
  </g>
</svg>
